<svg fill="#f00" xmlns="http://www.w3.org/2000/svg" xmlns:xlink="http://www.w3.org/1999/xlink" viewBox="0 0 270.729 270.729" xml:space="preserve"><g><path d="M0,55.529v124.822c0,14.763,12.1,26.771,26.974,26.771h78.03c-0.005,0.494-0.031,0.977,0.113,1.465c0.026,0.111,2.77,10.568-2.924,19.376c-0.58,0.903-0.769,1.911-0.764,2.919H80.626c-2.176,0-3.94,2.478-3.94,5.538
c0,3.06,1.764,5.548,3.94,5.548h109.476c2.173,0,3.937-2.488,3.937-5.548c0-3.061-1.764-5.538-3.937-5.538h-19.896
c0.005-1.008-0.179-2.016-0.766-2.919c-5.67-8.776-2.972-19.191-2.919-19.392c0.135-0.482,0.109-0.966,0.109-1.449h77.12
c14.876,0,26.977-12.005,26.977-26.771V55.529c0-14.761-12.106-26.77-26.977-26.77H26.974C12.1,28.76,0,40.768,0,55.529z
M158.758,230.872h-45.891c5.026-9.926,3.684-20.052,2.924-23.749h40.042C155.078,210.82,153.734,220.946,158.758,230.872z
M259.557,55.529v124.822c0,8.609-7.092,15.602-15.815,15.602H26.974c-8.719,0-15.809-7.003-15.809-15.602V55.529
c0-8.606,7.089-15.604,15.809-15.604h216.767C252.465,39.925,259.557,46.923,259.557,55.529z"/><path d="M25.717,54.072v106.18c0,1.602,1.289,2.893,2.888,2.893h213.503c1.597,0,2.893-1.291,2.893-2.893V54.072c0-1.596-1.296-2.887-2.893-2.887H28.61C27.012,51.186,25.717,52.481,25.717,54.072z M31.494,56.964h207.727v100.407H31.494V56.964z"/><path d="M138.626,172.578c-4.913,0-8.91,4-8.91,8.913s3.997,8.908,8.91,8.908c4.914,0,8.915-3.995,8.915-8.908C147.546,176.578,143.54,172.578,138.626,172.578z M138.626,186.379c-2.693,0-4.878-2.189-4.878-4.883c0-2.692,2.186-4.882,4.878-4.882c2.693,0,4.883,2.189,4.883,4.882C143.514,184.189,141.319,186.379,138.626,186.379z"/></g></svg>